<svg xmlns="http://www.w3.org/2000/svg" width="138" height="98" viewBox="0 0 138 98" version="1.1">
	<path d="M 61.415 19.421 C 49.412 24.648, 51.574 42.141, 64.523 44.570 C 69.347 45.475, 72.524 44.463, 76.611 40.718 C 83.224 34.658, 81.985 24.608, 74.078 20.164 C 69.698 17.702, 65.878 17.478, 61.415 19.421 M 51.655 48.829 C 50.263 50.367, 50 53.150, 50 66.329 C 50 86.843, 49.269 86, 67.045 86 C 79.563 86, 80.190 85.901, 82.545 83.545 C 84.934 81.157, 85 80.686, 85 66.045 C 85 46.154, 85.793 47, 67.155 47 C 55.012 47, 53.107 47.225, 51.655 48.829" stroke="none" fill="#000000" fill-rule="evenodd"/>
</svg>