<svg xmlns="http://www.w3.org/2000/svg" width="147" height="232" viewBox="0 0 147 232" version="1.1">
	<path d="M 87.250 49.643 C 86.013 49.916, 85 50.522, 85 50.990 C 85 51.458, 83.557 52.158, 81.794 52.545 C 78.085 53.360, 71 59.861, 71 62.450 C 71 63.419, 72.193 65.626, 73.652 67.356 C 76.641 70.901, 79.035 76.053, 78.930 78.718 C 78.892 79.698, 78.206 78.371, 77.406 75.770 C 75.494 69.553, 66.945 60.633, 61.431 59.103 C 44.983 54.536, 28.777 64.974, 27.215 81.141 C 26.256 91.062, 32.414 101.117, 42.412 105.957 C 49.221 109.253, 59.730 108.564, 66.548 104.374 C 72.372 100.795, 74.672 97.844, 77.087 90.852 C 78.103 87.908, 78.949 86.302, 78.967 87.282 C 78.985 88.262, 78.347 90.627, 77.549 92.538 C 76.273 95.590, 76.277 96.163, 77.583 97.256 C 78.401 97.940, 79.628 98.994, 80.311 99.598 C 80.994 100.202, 83.341 101.168, 85.526 101.744 C 89.136 102.697, 88.649 102.803, 80.200 102.897 C 70.304 103.007, 65.932 104.390, 63.987 108.025 C 62.654 110.515, 63.416 110.843, 71.500 111.255 C 74.800 111.424, 66.333 111.548, 52.684 111.531 L 27.868 111.500 24.434 115.235 L 21 118.971 21 146.938 C 21 164.677, 21.391 175.746, 22.068 177.203 C 22.656 178.466, 24.343 180.400, 25.818 181.500 C 28.294 183.346, 30.304 183.521, 52 183.776 C 72.878 184.020, 75.889 183.853, 78.986 182.276 C 84.814 179.307, 84.969 178.400, 84.985 147.150 L 85 118.800 81.600 115.400 C 79.730 113.530, 78.582 112, 79.049 112 C 79.516 112, 81.269 113.462, 82.945 115.250 L 85.991 118.500 85.995 148.250 L 86 178 103.923 178 L 121.846 178 124.923 174.923 L 128 171.846 128 140.569 L 128 109.292 125.318 106.396 C 122.723 103.594, 122.261 103.484, 111.068 103 C 101.990 102.608, 100.307 102.329, 103.250 101.705 C 105.313 101.267, 107 100.529, 107 100.063 C 107 99.598, 108.106 98.939, 109.458 98.600 C 112.805 97.760, 116.721 93.958, 117.521 90.772 C 117.884 89.327, 118.815 87.901, 119.590 87.604 C 120.374 87.303, 121 85.717, 121 84.031 C 121 82.364, 121.450 81, 122 81 C 122.550 81, 123 78.750, 123 76 C 123 73.250, 122.550 71, 122 71 C 121.450 71, 121 69.944, 121 68.653 C 121 67.362, 120.100 65.268, 119 64 C 117.900 62.732, 117 61.154, 117 60.493 C 117 58.380, 112.461 54.307, 108.737 53.078 C 106.753 52.423, 104.988 51.466, 104.815 50.951 C 104.461 49.900, 90.727 48.877, 87.250 49.643" stroke="none" fill="#000000" fill-rule="evenodd"/>
</svg>