<svg xmlns="http://www.w3.org/2000/svg" width="91" height="86" viewBox="0 0 91 86" version="1.1">
	<path d="M 20.001 12.123 C 8.131 16.857, 8.990 33.766, 21.269 37.072 C 26.181 38.395, 30.221 37.526, 34.018 34.331 L 36.988 31.832 39.567 34.897 C 44.067 40.245, 52.893 41.232, 58.285 36.990 C 60.500 35.248, 60.968 35.223, 65.051 36.630 C 70.181 38.397, 74.704 37.807, 78.419 34.885 C 84.177 30.356, 85.504 23.548, 81.730 17.898 C 77.162 11.060, 68.217 9.245, 61.944 13.883 C 59.335 15.812, 58.990 15.835, 55.167 14.334 C 50.124 12.353, 45.144 13.166, 41.008 16.647 L 37.956 19.214 35.810 16.486 C 32.096 11.764, 25.480 9.939, 20.001 12.123 M 10 42 C 8.173 43.827, 8 45.333, 8 59.429 C 8 79.507, 7.120 78.551, 26.500 79.527 C 42.696 80.343, 62.099 80.260, 73.841 79.324 C 88.070 78.190, 88 78.288, 88 59.524 C 88 46.530, 87.813 45.032, 85.887 42.583 L 83.774 39.897 70.137 40.408 C 62.637 40.689, 52.960 41.199, 48.633 41.543 C 43.510 41.949, 40.388 41.788, 39.683 41.083 C 39.014 40.414, 33.514 40, 25.300 40 C 13.333 40, 11.799 40.201, 10 42" stroke="none" fill="#000000" fill-rule="evenodd"/>
</svg>