<svg xmlns="http://www.w3.org/2000/svg" width="147" height="232" viewBox="0 0 147 232" version="1.1">
	<path d="M 22.415 86.421 C 9.853 91.891, 12.877 109.833, 26.674 111.683 C 29.284 112.033, 31.727 111.675, 33.704 110.653 C 36.605 109.153, 36.830 109.190, 39.041 111.543 L 41.349 114 27.829 114 C 10.049 114, 11 112.908, 11 133.329 C 11 153.081, 10.948 153, 23.640 153 C 30.715 153, 32.511 153.317, 33.556 154.750 C 34.596 156.176, 37.210 156.650, 47.666 157.308 C 73.794 158.954, 106.555 157.857, 109.154 155.250 C 110.005 154.397, 114 154, 121.745 154 C 132.458 154, 133.228 153.863, 135.545 151.545 C 137.934 149.157, 138 148.686, 138 134.045 C 138 114.150, 138.798 115, 120.122 115 C 109.007 115, 105.997 115.299, 105 116.500 C 104.023 117.677, 101.238 118, 92.078 118 C 85.006 118, 79.971 118.429, 79.313 119.087 C 78.611 119.789, 75.628 119.956, 70.863 119.560 C 66.814 119.222, 59.374 118.703, 54.331 118.406 C 47.782 118.021, 45.009 117.467, 44.626 116.467 C 44.213 115.392, 44.766 115.203, 47.008 115.652 C 51.008 116.452, 54.280 115.477, 57.945 112.393 L 61.044 109.786 63.190 112.514 C 67.645 118.178, 75.522 119.492, 81.341 115.543 C 84.755 113.227, 85.161 113.169, 88.449 114.543 C 92.624 116.288, 96.348 116.402, 99.316 114.878 C 102.617 113.182, 107 108.808, 107 107.209 C 107 106.301, 108.248 106.889, 110.479 108.847 C 114.213 112.126, 119.420 113.613, 123.542 112.579 C 128.104 111.434, 133.062 105.958, 133.675 101.389 C 135.639 86.741, 115.827 80.370, 108.055 93.150 C 106.569 95.594, 106.039 95.898, 105.353 94.699 C 104.884 93.878, 102.792 92.204, 100.705 90.978 C 96.150 88.303, 90.264 88.689, 85.850 91.953 C 83.204 93.909, 82.802 93.949, 80.053 92.527 C 75.046 89.938, 68.802 90.977, 64.358 95.140 C 62.243 97.120, 62.198 97.121, 60.858 95.209 C 58.835 92.325, 52.881 89.008, 49.718 89.004 C 48.188 89.002, 45.383 89.649, 43.485 90.442 C 40.646 91.628, 39.898 91.649, 39.267 90.563 C 37.921 88.245, 31.603 85.006, 28.500 85.043 C 26.850 85.062, 24.112 85.683, 22.415 86.421" stroke="none" fill="#000000" fill-rule="evenodd"/>
</svg>